<svg width="16" height="34" viewBox="0 0 16 34" fill="none" xmlns="http://www.w3.org/2000/svg">
<path d="M9 1C9 0.447715 8.55228 -2.41411e-08 8 0C7.44772 2.41411e-08 7 0.447715 7 1L9 1ZM7.29289 33.7071C7.68342 34.0976 8.31658 34.0976 8.70711 33.7071L15.0711 27.3431C15.4616 26.9526 15.4616 26.3195 15.0711 25.9289C14.6805 25.5384 14.0474 25.5384 13.6569 25.9289L8 31.5858L2.34315 25.9289C1.95262 25.5384 1.31946 25.5384 0.928933 25.9289C0.538409 26.3195 0.538409 26.9526 0.928933 27.3431L7.29289 33.7071ZM7 1L7 33L9 33L9 1L7 1Z" fill="#CACACA"/>
</svg>
